<svg width="36" height="36" viewBox="0 0 36 36" fill="none" xmlns="http://www.w3.org/2000/svg">
<g clip-path="url(#clip0_55_18)">
<path d="M28.4092 2.69061H12.2891V9.3755H31.8521V6.13212C31.8521 4.23429 30.3076 2.69061 28.4092 2.69061Z" fill="#CED9F9"/>
<path d="M19.2843 10.4042H0.430176V4.20134C0.430176 1.92845 2.27975 0.0796814 4.55344 0.0796814H10.5818C11.181 0.0796814 11.7582 0.205953 12.2826 0.443215C13.015 0.773237 13.6442 1.3172 14.0855 2.02791L19.2843 10.4042Z" fill="#2C4156"/>
<path d="M35.5696 11.7929V31.7733C35.5696 33.6736 34.0227 35.2191 32.1217 35.2191H3.87812C1.97707 35.2191 0.430176 33.6736 0.430176 31.7733V8.34631H32.1217C34.0227 8.34631 35.5696 9.8924 35.5696 11.7929Z" fill="#2C4156"/>
<path d="M35.5692 11.7929V31.7733C35.5692 33.6736 34.0223 35.2191 32.1213 35.2191H17.9995V8.34631H32.1213C34.0223 8.34631 35.5692 9.8924 35.5692 11.7929Z" fill="#2C4156"/>
<path d="M27.2429 21.7823C27.2429 26.8796 23.0964 31.0264 17.9996 31.0264C12.9029 31.0264 8.75635 26.8796 8.75635 21.7823C8.75635 16.6859 12.9029 12.539 17.9996 12.539C23.0964 12.539 27.2429 16.6859 27.2429 21.7823Z" fill="#E7ECFC"/>
<path d="M27.2428 21.7823C27.2428 26.8796 23.0962 31.0264 17.9995 31.0264V12.539C23.0962 12.539 27.2428 16.6859 27.2428 21.7823Z" fill="#CED9F9"/>
<path d="M20.9793 21.8957C20.7865 22.059 20.5503 22.1386 20.3163 22.1386C20.0232 22.1386 19.7321 22.0145 19.5283 21.7727L19.0294 21.1813V25.0533C19.0294 25.6217 18.5683 26.0828 18 26.0828C17.4316 26.0828 16.9705 25.6217 16.9705 25.0533V21.1813L16.4716 21.7727C16.1043 22.2073 15.4552 22.2628 15.0206 21.8957C14.5863 21.5292 14.5306 20.8799 14.897 20.4454L16.9348 18.0296C17.2005 17.7154 17.5882 17.5347 18 17.5347C18.4117 17.5347 18.7994 17.7154 19.0651 18.0296L21.1029 20.4454C21.4693 20.8799 21.4136 21.5292 20.9793 21.8957Z" fill="#2C4156"/>
<path d="M20.9788 21.8957C20.7861 22.059 20.5499 22.1386 20.3158 22.1386C20.0228 22.1386 19.7317 22.0145 19.5279 21.7727L19.029 21.1813V25.0533C19.029 25.6217 18.5679 26.0828 17.9995 26.0828V17.5347C18.4113 17.5347 18.799 17.7154 19.0646 18.0296L21.1024 20.4454C21.4689 20.8799 21.4131 21.5292 20.9788 21.8957Z" fill="#2C4156"/>
</g>
<defs>
<clipPath id="clip0_55_18">
<rect width="35.1394" height="35.1394" fill="white" transform="translate(0.430176 0.0796814)"/>
</clipPath>
</defs>
</svg>
